<?xml version="1.0" encoding="UTF-8" standalone="no"?>
<!-- Created with Inkscape (http://www.inkscape.org/) -->

<svg
   xmlns:dc="http://purl.org/dc/elements/1.1/"
   xmlns:cc="http://creativecommons.org/ns#"
   xmlns:rdf="http://www.w3.org/1999/02/22-rdf-syntax-ns#"
   xmlns:svg="http://www.w3.org/2000/svg"
   xmlns="http://www.w3.org/2000/svg"
   xmlns:xlink="http://www.w3.org/1999/xlink"
   xmlns:sodipodi="http://sodipodi.sourceforge.net/DTD/sodipodi-0.dtd"
   xmlns:inkscape="http://www.inkscape.org/namespaces/inkscape"
   width="32"
   height="32"
   id="svg5453"
   version="1.1"
   inkscape:version="0.48.3.1 r9886"
   sodipodi:docname="system-log-out.svg"
   viewBox="0 0 32 32">
  <defs
     id="defs5455">
    <linearGradient
       inkscape:collect="always"
       xlink:href="#linearGradient4300-1"
       id="linearGradient4149"
       x1="400.57144"
       y1="545.79797"
       x2="400.57144"
       y2="517.79797"
       gradientUnits="userSpaceOnUse" />
    <linearGradient
       inkscape:collect="always"
       xlink:href="#linearGradient4298"
       id="linearGradient4280"
       x1="16"
       y1="22.999973"
       x2="16"
       y2="8.9999743"
       gradientUnits="userSpaceOnUse"
       gradientTransform="matrix(1.5887644,0,0,1.5887644,375.27255,506.20615)" />
    <linearGradient
       inkscape:collect="always"
       xlink:href="#linearGradient4227"
       id="linearGradient4291"
       x1="9"
       y1="8.9999743"
       x2="24.000027"
       y2="24"
       gradientUnits="userSpaceOnUse" />
    <linearGradient
       id="linearGradient4227"
       inkscape:collect="always">
      <stop
         id="stop4229"
         offset="0"
         style="stop-color:#292c2f;stop-opacity:1" />
      <stop
         id="stop4231"
         offset="1"
         style="stop-color:#000000;stop-opacity:0;" />
    </linearGradient>
    <linearGradient
       id="linearGradient4298"
       inkscape:collect="always">
      <stop
         id="stop4300"
         offset="0"
         style="stop-color:#b985ce;stop-opacity:1" />
      <stop
         id="stop4302"
         offset="1"
         style="stop-color:#e2cdeb;stop-opacity:1" />
    </linearGradient>
    <linearGradient
       inkscape:collect="always"
       id="linearGradient4300-1">
      <stop
         style="stop-color:#8e44ad;stop-opacity:1"
         offset="0"
         id="stop4302-0" />
      <stop
         style="stop-color:#9b59b6;stop-opacity:1"
         offset="1"
         id="stop4304-6" />
    </linearGradient>
  </defs>
  <sodipodi:namedview
     id="base"
     pagecolor="#ffffff"
     bordercolor="#666666"
     borderopacity="1.0"
     inkscape:pageopacity="0"
     inkscape:pageshadow="2"
     inkscape:zoom="1"
     inkscape:cx="22.217822"
     inkscape:cy="15.405941"
     inkscape:document-units="px"
     inkscape:current-layer="layer1"
     showgrid="true"
     fit-margin-top="0"
     fit-margin-left="0"
     fit-margin-right="0"
     fit-margin-bottom="0"
     inkscape:window-width="1920"
     inkscape:window-height="1031"
     inkscape:window-x="-2"
     inkscape:window-y="-1"
     inkscape:window-maximized="1"
     inkscape:showpageshadow="false"
     borderlayer="true"
     showguides="true">
    <inkscape:grid
       type="xygrid"
       id="grid4063" />
    <sodipodi:guide
       position="1.1650391e-05,32.000026"
       orientation="32,0"
       id="guide4157" />
    <sodipodi:guide
       position="1.1650391e-05,2.6367188e-05"
       orientation="0,32"
       id="guide4159" />
    <sodipodi:guide
       position="32.000012,2.6367188e-05"
       orientation="-32,0"
       id="guide4161" />
    <sodipodi:guide
       position="32.000012,32.000026"
       orientation="0,-32"
       id="guide4163" />
    <sodipodi:guide
       position="2.0000117,30.000026"
       orientation="28,0"
       id="guide4167" />
    <sodipodi:guide
       position="30.000012,2.0000264"
       orientation="-28,0"
       id="guide4171" />
    <sodipodi:guide
       position="30.000012,30.000026"
       orientation="0,-28"
       id="guide4173" />
    <sodipodi:guide
       position="2.0000117,30.000026"
       orientation="28,0"
       id="guide4181" />
    <sodipodi:guide
       position="2.0000117,2.0000264"
       orientation="0,14"
       id="guide4183" />
    <sodipodi:guide
       position="16.000012,2.0000264"
       orientation="-28,0"
       id="guide4185" />
    <sodipodi:guide
       position="16.000012,30.000026"
       orientation="0,-14"
       id="guide4187" />
    <sodipodi:guide
       position="9.0000117,23.000026"
       orientation="14,0"
       id="guide4193" />
    <sodipodi:guide
       position="9.0000117,9.0000264"
       orientation="0,14.000031"
       id="guide4195" />
    <sodipodi:guide
       position="23.000042,9.0000264"
       orientation="-14,0"
       id="guide4197" />
    <sodipodi:guide
       position="23.000042,23.000026"
       orientation="0,-14.000031"
       id="guide4199" />
  </sodipodi:namedview>
  <metadata
     id="metadata5458">
    <rdf:RDF>
      <cc:Work
         rdf:about="">
        <dc:format>image/svg+xml</dc:format>
        <dc:type
           rdf:resource="http://purl.org/dc/dcmitype/StillImage" />
        <dc:title />
      </cc:Work>
    </rdf:RDF>
  </metadata>
  <g
     inkscape:label="Capa 1"
     inkscape:groupmode="layer"
     id="layer1"
     transform="translate(-384.57143,-515.798)">
    <rect
       style="opacity:1;fill:url(#linearGradient4149);fill-opacity:1.0;stroke:none"
       id="rect4130"
       width="28.000011"
       height="28.000027"
       x="386.57144"
       y="517.79797"
       ry="14.000006" />
    <path
       style="fill:url(#linearGradient4280);fill-opacity:1;stroke:none"
       d="m 400.69278,520.50503 a 11.121384,11.121352 0 0 0 -11.12135,11.12135 11.121384,11.121352 0 0 0 11.12135,11.12135 11.121384,11.121352 0 0 0 11.12135,-11.12135 11.121384,11.121352 0 0 0 -11.12135,-11.12135 z m -0.0218,1.58876 a 9.5326199,9.5325918 0 0 1 0.0218,0 9.5325676,9.5325865 0 0 1 1.89287,0.18929 9.5325676,9.5325865 0 0 1 3.48783,1.47706 9.5325676,9.5325865 0 0 1 0.003,0 9.5325676,9.5325865 0 0 1 1.45222,1.2257 9.5325676,9.5325865 0 0 1 0.62993,0.7137 9.5326199,9.5325918 0 0 1 0,0.003 9.5325676,9.5325865 0 0 1 0.55545,0.77265 9.5326199,9.5325918 0 0 1 0,0.003 9.5325676,9.5325865 0 0 1 0.86265,1.69425 9.5326199,9.5325918 0 0 1 0,0.003 9.5325676,9.5325865 0 0 1 0.512,1.86183 9.5325676,9.5325865 0 0 1 0.13647,1.58876 9.5325676,9.5325865 0 0 1 -0.14267,1.58877 9.5325676,9.5325865 0 0 1 0,0.006 9.5325676,9.5325865 0 0 1 -0.1955,0.87816 9.5326199,9.5325918 0 0 1 -0.01,0.0466 9.5325676,9.5325865 0 0 1 -0.006,0.0218 9.5325676,9.5325865 0 0 1 -0.26066,0.79438 9.5326199,9.5325918 0 0 1 -0.0496,0.13647 9.5325676,9.5325865 0 0 1 -0.35686,0.79748 9.5326199,9.5325918 0 0 1 -0.0127,0.0248 9.5325676,9.5325865 0 0 1 -0.006,0.01 9.5325676,9.5325865 0 0 1 -0.4127,0.73231 9.5326199,9.5325918 0 0 1 -0.0807,0.13346 9.5325676,9.5325865 0 0 1 -0.44995,0.62991 9.5326199,9.5325918 0 0 1 -0.10867,0.14585 9.5325676,9.5325865 0 0 1 -0.5089,0.58338 9.5326199,9.5325918 0 0 1 -0.12408,0.13027 9.5325676,9.5325865 0 0 1 -0.54614,0.512 9.5326199,9.5325918 0 0 1 -0.16137,0.14283 9.5325676,9.5325865 0 0 1 -0.56165,0.42822 9.5326199,9.5325918 0 0 1 -0.211,0.15204 9.5325676,9.5325865 0 0 1 -0.57718,0.35686 9.5326199,9.5325918 0 0 1 -0.24204,0.13965 9.5325676,9.5325865 0 0 1 -0.60199,0.29168 9.5326199,9.5325918 0 0 1 -0.26375,0.11789 9.5325676,9.5325865 0 0 1 -0.55855,0.2079 9.5326199,9.5325918 0 0 1 -0.36928,0.12107 9.5325676,9.5325865 0 0 1 -0.51509,0.13345 9.5326199,9.5325918 0 0 1 -0.43133,0.0963 9.5325676,9.5325865 0 0 1 -0.44994,0.0713 9.5326199,9.5325918 0 0 1 -0.51201,0.0621 9.5325676,9.5325865 0 0 1 -0.73231,0.0372 9.5325676,9.5325865 0 0 1 -0.0745,0.003 9.5325676,9.5325865 0 0 1 -1.89287,-0.18928 9.5325676,9.5325865 0 0 1 -1.81838,-0.56476 9.5325676,9.5325865 0 0 1 -1.66945,-0.9123 9.5326199,9.5325918 0 0 1 -0.003,0 9.5325676,9.5325865 0 0 1 -1.45223,-1.2257 9.5325676,9.5325865 0 0 1 -0.62993,-0.71371 9.5325676,9.5325865 0 0 1 0,-0.003 9.5326199,9.5325918 0 0 1 -0.55545,-0.77267 9.5325676,9.5325865 0 0 1 0,-0.003 9.5325676,9.5325865 0 0 1 -0.86265,-1.69428 9.5325676,9.5325865 0 0 1 0,-0.003 9.5325676,9.5325865 0 0 1 -0.51199,-1.86184 9.5325676,9.5325865 0 0 1 -0.13648,-1.58876 9.5325676,9.5325865 0 0 1 0.14267,-1.58877 9.5326199,9.5325918 0 0 1 0,-0.006 9.5325676,9.5325865 0 0 1 0.1955,-0.87816 9.5326199,9.5325918 0 0 1 0.0159,-0.0683 9.5325676,9.5325865 0 0 1 0.26065,-0.79438 9.5326199,9.5325918 0 0 1 0.0496,-0.13647 9.5325676,9.5325865 0 0 1 0.35685,-0.79748 9.5326199,9.5325918 0 0 1 0.0186,-0.0342 9.5325676,9.5325865 0 0 1 0.4127,-0.73233 9.5326199,9.5325918 0 0 1 0.0807,-0.13345 9.5325676,9.5325865 0 0 1 0.44995,-0.62992 9.5326199,9.5325918 0 0 1 0.10867,-0.14585 9.5325676,9.5325865 0 0 1 0.5089,-0.58336 9.5326199,9.5325918 0 0 1 0.12408,-0.13028 9.5325676,9.5325865 0 0 1 0.54614,-0.51199 9.5326199,9.5325918 0 0 1 0.16137,-0.14267 9.5325676,9.5325865 0 0 1 0.56165,-0.42824 9.5326199,9.5325918 0 0 1 0.211,-0.15204 9.5325676,9.5325865 0 0 1 0.57718,-0.35686 9.5326199,9.5325918 0 0 1 0.24203,-0.13965 9.5325676,9.5325865 0 0 1 0.602,-0.29168 9.5326199,9.5325918 0 0 1 0.26375,-0.11789 9.5325676,9.5325865 0 0 1 0.55855,-0.2079 9.5326199,9.5325918 0 0 1 0.36928,-0.12107 9.5325676,9.5325865 0 0 1 0.51509,-0.13345 9.5326199,9.5325918 0 0 1 0.43133,-0.0961 9.5325676,9.5325865 0 0 1 0.44994,-0.0713 9.5326199,9.5325918 0 0 1 0.51201,-0.0621 9.5325676,9.5325865 0 0 1 0.73233,-0.0372 9.5326199,9.5325918 0 0 1 0.0527,-0.003 z m 2.07595,3.17753 -5.23176,5.23176 -1.1233,1.1233 1.1233,1.12331 5.23176,5.23175 1.1233,-1.12331 -5.23175,-5.23175 5.23175,-5.23175 -1.1233,-1.12331 z"
       id="path4269"
       inkscape:connector-curvature="0" />
  </g>
</svg>
